<?xml version="1.0" encoding="UTF-8"?>
<!DOCTYPE svg PUBLIC "-//W3C//DTD SVG 1.1//EN" "http://www.w3.org/Graphics/SVG/1.1/DTD/svg11.dtd">
<svg xmlns="http://www.w3.org/2000/svg" version="1.1" width="4163px" height="3322px" style="shape-rendering:geometricPrecision; text-rendering:geometricPrecision; image-rendering:optimizeQuality; fill-rule:evenodd; clip-rule:evenodd" xmlns:xlink="http://www.w3.org/1999/xlink">
<g><path style="opacity:0.111" fill="#73ab91" d="M 1731.5,-0.5 C 1765.5,-0.5 1799.5,-0.5 1833.5,-0.5C 2018.7,8.53432 2200.03,40.3677 2377.5,95C 2538.27,145.052 2693.6,208.385 2843.5,285C 3022.3,377.521 3193.97,480.854 3358.5,595C 3437.08,648.247 3513.42,704.58 3587.5,764C 3661.3,823.464 3728.13,889.964 3788,963.5C 3911.41,1122.46 3965.08,1302.79 3949,1504.5C 3934.9,1654.34 3883.74,1789.68 3795.5,1910.5C 3608.83,1911.37 3422.16,1912.71 3235.5,1914.5C 3234.07,1908.98 3231.57,1903.98 3228,1899.5C 3220.7,1893.2 3213.7,1886.53 3207,1879.5C 3201.84,1871.93 3201.18,1863.93 3205,1855.5C 3230.57,1816.68 3230.9,1777.68 3206,1738.5C 3197.96,1727.63 3188.46,1718.29 3177.5,1710.5C 3172.84,1690.5 3167,1670.83 3160,1651.5C 3159.33,1650.17 3158.67,1648.83 3158,1647.5C 3151.64,1642.3 3145.8,1636.64 3140.5,1630.5C 3142.66,1611.82 3137.83,1595.15 3126,1580.5C 3113.24,1565.74 3101.24,1550.41 3090,1534.5C 3075.51,1505.28 3071.51,1474.61 3078,1442.5C 3084.44,1412.74 3092.44,1383.41 3102,1354.5C 3105.86,1341.08 3107.53,1327.41 3107,1313.5C 3105.89,1299.49 3101.22,1286.83 3093,1275.5C 3071.46,1248.3 3046.96,1224.13 3019.5,1203C 3007.23,1194.7 2994.57,1187.2 2981.5,1180.5C 2981.67,1086.83 2981.5,993.166 2981,899.5C 2975.26,855.419 2951.09,826.919 2908.5,814C 2904.53,813.147 2900.53,812.481 2896.5,812C 2466.5,811.333 2036.5,811.333 1606.5,812C 1570.79,817.096 1545.29,835.929 1530,868.5C 1526.58,876.523 1524.24,884.857 1523,893.5C 1522.33,1216.5 1522.33,1539.5 1523,1862.5C 1527.06,1888.68 1539.56,1909.68 1560.5,1925.5C 1314.01,1928.44 1067.34,1930.44 820.5,1931.5C 820.5,1928.17 820.5,1924.83 820.5,1921.5C 829.5,1921.5 838.5,1921.5 847.5,1921.5C 847.5,1865.5 847.5,1809.5 847.5,1753.5C 784.167,1753.5 720.833,1753.5 657.5,1753.5C 667.918,1717.72 683.418,1684.39 704,1653.5C 712.968,1640.86 724.135,1630.7 737.5,1623C 740.72,1621.65 744.053,1620.81 747.5,1620.5C 747.435,1618.3 746.768,1616.3 745.5,1614.5C 737.168,1616.5 729.835,1620.33 723.5,1626C 717.958,1631.37 712.624,1636.87 707.5,1642.5C 686.646,1630.15 669.146,1614.15 655,1594.5C 637.486,1563.39 641.986,1535.89 668.5,1512C 676.003,1507.02 684.003,1506.19 692.5,1509.5C 696.703,1506.77 696.37,1504.6 691.5,1503C 688.607,1501.85 685.607,1501.35 682.5,1501.5C 682.124,1492.76 682.624,1484.1 684,1475.5C 685.115,1470.75 687.948,1467.59 692.5,1466C 688.388,1464.19 684.721,1465.02 681.5,1468.5C 677.979,1473.23 676.146,1478.56 676,1484.5C 675.203,1491.55 675.37,1498.55 676.5,1505.5C 671.011,1506.88 666.011,1509.21 661.5,1512.5C 653.074,1522.35 647.574,1533.69 645,1546.5C 637.302,1539.14 629.969,1531.47 623,1523.5C 619.493,1518.49 616.493,1513.16 614,1507.5C 611.472,1499.83 612.139,1492.49 616,1485.5C 616.903,1484.3 618.069,1483.47 619.5,1483C 614.375,1481.43 610.541,1482.93 608,1487.5C 604.563,1498.55 606.23,1508.88 613,1518.5C 620.236,1528.91 628.736,1538.24 638.5,1546.5C 636.257,1565.86 640.757,1583.53 652,1599.5C 666.741,1617.91 684.241,1633.08 704.5,1645C 687.789,1667.24 674.289,1691.41 664,1717.5C 659.329,1729.35 655.162,1741.35 651.5,1753.5C 632.833,1753.5 614.167,1753.5 595.5,1753.5C 595.5,1809.5 595.5,1865.5 595.5,1921.5C 604.833,1921.5 614.167,1921.5 623.5,1921.5C 623.5,1925.5 623.5,1929.5 623.5,1933.5C 604.5,1933.5 585.5,1933.5 566.5,1933.5C 502.565,1889.76 441.899,1841.6 384.5,1789C 335.653,1742.85 292.82,1692.02 256,1636.5C 225.17,1589.04 201.837,1538.04 186,1483.5C 158.426,1378.63 166.426,1276.63 210,1177.5C 252.48,1090.36 317.98,1026.86 406.5,987C 456.603,965.855 508.269,949.522 561.5,938C 627.223,923.922 692.89,909.589 758.5,895C 834.836,877.887 909.169,854.554 981.5,825C 1053.02,794.772 1117.35,753.772 1174.5,702C 1203.46,674.716 1226.62,643.216 1244,607.5C 1256.08,580.76 1261.08,552.76 1259,523.5C 1251.59,483.677 1245.25,443.677 1240,403.5C 1222.94,293.303 1255.78,201.469 1338.5,128C 1393.91,81.4546 1456.91,48.7879 1527.5,30C 1594.51,12.3084 1662.51,2.14178 1731.5,-0.5 Z"/></g>
<g><path style="opacity:0.101" fill="#73ac91" d="M 439.5,144.5 C 479.962,142.136 508.795,159.136 526,195.5C 537.594,229.124 531.428,258.957 507.5,285C 481.276,307.985 451.609,313.651 418.5,302C 381.94,284.398 365.44,255.231 369,214.5C 374.206,183.932 391.039,162.432 419.5,150C 426.208,147.826 432.875,145.993 439.5,144.5 Z"/></g>
<g><path style="opacity:0.101" fill="#73ac91" d="M 720.5,406.5 C 777.541,407.42 819.041,433.087 845,483.5C 866.163,536.561 858.497,584.894 822,628.5C 781.832,667.999 734.666,679.499 680.5,663C 625.137,640.306 596.137,598.972 593.5,539C 595.373,481.887 622.039,441.22 673.5,417C 688.771,411.115 704.438,407.615 720.5,406.5 Z"/></g>
<g><path style="opacity:0.1" fill="#73ac91" d="M 3850.5,425.5 C 3879.49,424.556 3897.99,437.889 3906,465.5C 3909.87,493.273 3899.03,512.773 3873.5,524C 3845.02,531.296 3823.85,522.129 3810,496.5C 3800.52,467.31 3809.02,445.144 3835.5,430C 3840.48,428.01 3845.48,426.51 3850.5,425.5 Z"/></g>
<g><path style="opacity:0.999" fill="#4b4c4b" d="M 2981.5,1180.5 C 2971.48,1177.1 2961.48,1173.6 2951.5,1170C 2925.75,1162.33 2899.75,1161.16 2873.5,1166.5C 2870.98,1165.21 2868.31,1164.55 2865.5,1164.5C 2865.5,1081.17 2865.5,997.833 2865.5,914.5C 2457,913.5 2048.33,913.167 1639.5,913.5C 1639.17,1221.67 1639.5,1529.67 1640.5,1837.5C 1879.5,1837.5 2118.5,1837.5 2357.5,1837.5C 2357.97,1853.26 2359.47,1868.93 2362,1884.5C 2365.6,1894.41 2369.93,1904.07 2375,1913.5C 2382.42,1922.93 2391.92,1929.1 2403.5,1932C 2441.82,1932.93 2479.82,1929.93 2517.5,1923C 2525.07,1920.21 2532.4,1916.88 2539.5,1913C 2566.51,1897.49 2593.85,1882.49 2621.5,1868C 2624.62,1866.69 2627.79,1865.52 2631,1864.5C 2632.83,1864.52 2634.33,1865.19 2635.5,1866.5C 2625.71,1890.99 2619.04,1916.33 2615.5,1942.5C 2280.57,1943.5 1945.57,1943.83 1610.5,1943.5C 1591.96,1942.43 1575.29,1936.43 1560.5,1925.5C 1539.56,1909.68 1527.06,1888.68 1523,1862.5C 1522.33,1539.5 1522.33,1216.5 1523,893.5C 1524.24,884.857 1526.58,876.523 1530,868.5C 1545.29,835.929 1570.79,817.096 1606.5,812C 2036.5,811.333 2466.5,811.333 2896.5,812C 2900.53,812.481 2904.53,813.147 2908.5,814C 2951.09,826.919 2975.26,855.419 2981,899.5C 2981.5,993.166 2981.67,1086.83 2981.5,1180.5 Z"/></g>
<g><path style="opacity:1" fill="#b7b7b7" d="M 2865.5,914.5 C 2457.17,914.5 2048.83,914.5 1640.5,914.5C 1640.5,1222.17 1640.5,1529.83 1640.5,1837.5C 1639.5,1529.67 1639.17,1221.67 1639.5,913.5C 2048.33,913.167 2457,913.5 2865.5,914.5 Z"/></g>
<g><path style="opacity:1" fill="#efefef" d="M 2865.5,914.5 C 2865.5,997.833 2865.5,1081.17 2865.5,1164.5C 2844.42,1159.97 2823.09,1157.64 2801.5,1157.5C 2794.11,1157.24 2786.78,1157.57 2779.5,1158.5C 2772.15,1158.92 2765.98,1161.92 2761,1167.5C 2756.87,1178.34 2753.21,1189.34 2750,1200.5C 2744.08,1212.43 2735.91,1222.59 2725.5,1231C 2714.83,1237.67 2704.17,1244.33 2693.5,1251C 2688.97,1255.2 2684.8,1259.7 2681,1264.5C 2675.85,1274.28 2676.51,1283.61 2683,1292.5C 2687.89,1296.39 2693.06,1299.89 2698.5,1303C 2696.38,1304.17 2695.72,1305.67 2696.5,1307.5C 2713.94,1311.77 2731.44,1315.77 2749,1319.5C 2725.95,1368.4 2727.29,1416.74 2753,1464.5C 2764.64,1483.64 2779.81,1499.31 2798.5,1511.5C 2804.1,1514.45 2809.44,1517.78 2814.5,1521.5C 2814.5,1522.83 2814.5,1524.17 2814.5,1525.5C 2815.58,1552.13 2813.41,1578.47 2808,1604.5C 2805.86,1609.92 2803.53,1615.25 2801,1620.5C 2798.83,1624 2796,1626.83 2792.5,1629C 2772.23,1637.14 2752.56,1646.3 2733.5,1656.5C 2731.97,1656.43 2730.97,1657.09 2730.5,1658.5C 2724.21,1653.89 2717.21,1652.39 2709.5,1654C 2705.31,1656.22 2703.64,1659.72 2704.5,1664.5C 2683.97,1662.36 2663.63,1663.52 2643.5,1668C 2634.78,1671.06 2626.78,1675.39 2619.5,1681C 2588.57,1707.27 2559.57,1735.6 2532.5,1766C 2521.77,1773.03 2510.44,1779.03 2498.5,1784C 2483.95,1790.29 2469.28,1795.96 2454.5,1801C 2465.9,1782.09 2470.74,1761.59 2469,1739.5C 2463.13,1716.17 2460.13,1692.5 2460,1668.5C 2466.46,1638.54 2472.79,1608.54 2479,1578.5C 2480.88,1554.37 2477.71,1531.03 2469.5,1508.5C 2470.4,1509.6 2471.23,1509.6 2472,1508.5C 2506.76,1446.32 2512.1,1381.65 2488,1314.5C 2460.93,1251.43 2415.09,1208.26 2350.5,1185C 2268.6,1161.55 2195.6,1177.55 2131.5,1233C 2069.07,1295.2 2048.24,1369.36 2069,1455.5C 2086.78,1514.92 2122.61,1559.76 2176.5,1590C 2248.07,1625.75 2319.41,1625.25 2390.5,1588.5C 2381.21,1666.06 2370.37,1743.39 2358,1820.5C 2357.5,1826.16 2357.33,1831.82 2357.5,1837.5C 2118.5,1837.5 1879.5,1837.5 1640.5,1837.5C 1640.5,1529.83 1640.5,1222.17 1640.5,914.5C 2048.83,914.5 2457.17,914.5 2865.5,914.5 Z"/></g>
<g><path style="opacity:1" fill="#3d3d3d" d="M 2801.5,1157.5 C 2789.21,1160.29 2781.71,1167.96 2779,1180.5C 2775.46,1201.09 2765.63,1217.92 2749.5,1231C 2738.33,1237.75 2727.33,1244.75 2716.5,1252C 2710.14,1257.02 2705.31,1263.19 2702,1270.5C 2699.52,1279.05 2701.18,1286.72 2707,1293.5C 2715.72,1301.19 2725.89,1306.03 2737.5,1308C 2755.41,1309.51 2772.41,1314.18 2788.5,1322C 2821.05,1342.92 2832.55,1372.09 2823,1409.5C 2817.68,1422.3 2813.84,1435.47 2811.5,1449C 2811.99,1455.43 2813.49,1461.59 2816,1467.5C 2823.94,1480.44 2832.27,1493.1 2841,1505.5C 2848.84,1521.65 2852.34,1538.82 2851.5,1557C 2849.91,1592.16 2849.07,1627.32 2849,1662.5C 2849.75,1679.68 2858.08,1691.35 2874,1697.5C 2881.13,1699.16 2888.29,1700.66 2895.5,1702C 2909.08,1705.91 2918.58,1714.41 2924,1727.5C 2928.61,1744.17 2930.94,1761.17 2931,1778.5C 2931.45,1805.85 2931.12,1833.19 2930,1860.5C 2931.27,1868.87 2935.43,1875.37 2942.5,1880C 2962.05,1888.04 2982.38,1893.04 3003.5,1895C 2999.51,1895.5 2995.51,1895.67 2991.5,1895.5C 2967.9,1894.35 2945.23,1889.19 2923.5,1880C 2917.27,1875.77 2913.44,1869.93 2912,1862.5C 2912.42,1830.17 2912.42,1797.84 2912,1765.5C 2912.26,1748.4 2908.26,1732.4 2900,1717.5C 2894.84,1710.34 2888,1705.51 2879.5,1703C 2870.83,1701 2862.16,1699 2853.5,1697C 2849.98,1695.41 2846.65,1693.57 2843.5,1691.5C 2836.41,1684.32 2832.25,1675.65 2831,1665.5C 2830.9,1631.66 2831.4,1597.83 2832.5,1564C 2835.03,1543.82 2831.87,1524.65 2823,1506.5C 2816.72,1496.56 2810.06,1486.89 2803,1477.5C 2798.59,1470.35 2795.59,1462.68 2794,1454.5C 2793.33,1449.5 2793.33,1444.5 2794,1439.5C 2798.67,1425.48 2803.34,1411.48 2808,1397.5C 2810.4,1364.47 2797.57,1339.31 2769.5,1322C 2765.38,1319.6 2761.04,1317.77 2756.5,1316.5C 2752.34,1314.87 2748,1313.37 2743.5,1312C 2731,1310.42 2718.66,1308.08 2706.5,1305C 2696.57,1301.74 2689.07,1295.57 2684,1286.5C 2681.09,1277.45 2682.43,1269.11 2688,1261.5C 2691.17,1258.33 2694.33,1255.17 2697.5,1252C 2711.52,1243.99 2724.86,1234.99 2737.5,1225C 2744.95,1217.28 2750.78,1208.45 2755,1198.5C 2757.77,1188.29 2761.11,1178.29 2765,1168.5C 2768.69,1163.28 2773.52,1159.95 2779.5,1158.5C 2786.78,1157.57 2794.11,1157.24 2801.5,1157.5 Z"/></g>
<g><path style="opacity:1" fill="#434443" d="M 2801.5,1157.5 C 2823.09,1157.64 2844.42,1159.97 2865.5,1164.5C 2868.31,1164.55 2870.98,1165.21 2873.5,1166.5C 2899.75,1161.16 2925.75,1162.33 2951.5,1170C 2961.48,1173.6 2971.48,1177.1 2981.5,1180.5C 2994.57,1187.2 3007.23,1194.7 3019.5,1203C 3046.96,1224.13 3071.46,1248.3 3093,1275.5C 3101.22,1286.83 3105.89,1299.49 3107,1313.5C 3107.53,1327.41 3105.86,1341.08 3102,1354.5C 3092.44,1383.41 3084.44,1412.74 3078,1442.5C 3071.51,1474.61 3075.51,1505.28 3090,1534.5C 3101.24,1550.41 3113.24,1565.74 3126,1580.5C 3137.83,1595.15 3142.66,1611.82 3140.5,1630.5C 3138.5,1640.16 3138.17,1649.83 3139.5,1659.5C 3140.21,1667.32 3142.88,1674.32 3147.5,1680.5C 3155.81,1692.15 3165.81,1702.15 3177.5,1710.5C 3188.46,1718.29 3197.96,1727.63 3206,1738.5C 3230.9,1777.68 3230.57,1816.68 3205,1855.5C 3201.18,1863.93 3201.84,1871.93 3207,1879.5C 3213.7,1886.53 3220.7,1893.2 3228,1899.5C 3231.57,1903.98 3234.07,1908.98 3235.5,1914.5C 3235.03,1937.8 3223.03,1950.3 3199.5,1952C 3205.39,1962.22 3202.39,1968.22 3190.5,1970C 3183.82,1970.55 3177.15,1970.38 3170.5,1969.5C 3156.86,1967.35 3143.53,1964.01 3130.5,1959.5C 3127.16,1957.27 3123.5,1955.6 3119.5,1954.5C 3099.21,1943.49 3081.21,1929.32 3065.5,1912C 3054.24,1902.69 3041.24,1897.69 3026.5,1897C 3014.66,1896.83 3002.99,1896.33 2991.5,1895.5C 2995.51,1895.67 2999.51,1895.5 3003.5,1895C 2982.38,1893.04 2962.05,1888.04 2942.5,1880C 2935.43,1875.37 2931.27,1868.87 2930,1860.5C 2931.12,1833.19 2931.45,1805.85 2931,1778.5C 2930.94,1761.17 2928.61,1744.17 2924,1727.5C 2918.58,1714.41 2909.08,1705.91 2895.5,1702C 2888.29,1700.66 2881.13,1699.16 2874,1697.5C 2858.08,1691.35 2849.75,1679.68 2849,1662.5C 2849.07,1627.32 2849.91,1592.16 2851.5,1557C 2852.34,1538.82 2848.84,1521.65 2841,1505.5C 2832.27,1493.1 2823.94,1480.44 2816,1467.5C 2813.49,1461.59 2811.99,1455.43 2811.5,1449C 2813.84,1435.47 2817.68,1422.3 2823,1409.5C 2832.55,1372.09 2821.05,1342.92 2788.5,1322C 2772.41,1314.18 2755.41,1309.51 2737.5,1308C 2725.89,1306.03 2715.72,1301.19 2707,1293.5C 2701.18,1286.72 2699.52,1279.05 2702,1270.5C 2705.31,1263.19 2710.14,1257.02 2716.5,1252C 2727.33,1244.75 2738.33,1237.75 2749.5,1231C 2765.63,1217.92 2775.46,1201.09 2779,1180.5C 2781.71,1167.96 2789.21,1160.29 2801.5,1157.5 Z"/></g>
<g><path style="opacity:1" fill="#dddcdc" d="M 2779.5,1158.5 C 2773.52,1159.95 2768.69,1163.28 2765,1168.5C 2761.11,1178.29 2757.77,1188.29 2755,1198.5C 2750.78,1208.45 2744.95,1217.28 2737.5,1225C 2724.86,1234.99 2711.52,1243.99 2697.5,1252C 2694.33,1255.17 2691.17,1258.33 2688,1261.5C 2682.43,1269.11 2681.09,1277.45 2684,1286.5C 2689.07,1295.57 2696.57,1301.74 2706.5,1305C 2718.66,1308.08 2731,1310.42 2743.5,1312C 2748,1313.37 2752.34,1314.87 2756.5,1316.5C 2755.33,1317.51 2754.66,1318.85 2754.5,1320.5C 2746.48,1334.07 2741.31,1348.73 2739,1364.5C 2731.24,1424.95 2751.08,1473.95 2798.5,1511.5C 2779.81,1499.31 2764.64,1483.64 2753,1464.5C 2727.29,1416.74 2725.95,1368.4 2749,1319.5C 2731.44,1315.77 2713.94,1311.77 2696.5,1307.5C 2695.72,1305.67 2696.38,1304.17 2698.5,1303C 2693.06,1299.89 2687.89,1296.39 2683,1292.5C 2676.51,1283.61 2675.85,1274.28 2681,1264.5C 2684.8,1259.7 2688.97,1255.2 2693.5,1251C 2704.17,1244.33 2714.83,1237.67 2725.5,1231C 2735.91,1222.59 2744.08,1212.43 2750,1200.5C 2753.21,1189.34 2756.87,1178.34 2761,1167.5C 2765.98,1161.92 2772.15,1158.92 2779.5,1158.5 Z"/></g>
<g><path style="opacity:1" fill="#74ac92" d="M 2469.5,1508.5 C 2464.47,1493.02 2456.47,1479.35 2445.5,1467.5C 2474.03,1391.5 2460.37,1324.33 2404.5,1266C 2353.63,1221.05 2295.29,1207.39 2229.5,1225C 2158.59,1250.25 2117.09,1300.09 2105,1374.5C 2099.5,1445.97 2125.66,1502.47 2183.5,1544C 2241.55,1579.33 2301.55,1582.83 2363.5,1554.5C 2371.58,1562.38 2380.58,1569.04 2390.5,1574.5C 2391.57,1579.16 2391.57,1583.82 2390.5,1588.5C 2319.41,1625.25 2248.07,1625.75 2176.5,1590C 2122.61,1559.76 2086.78,1514.92 2069,1455.5C 2048.24,1369.36 2069.07,1295.2 2131.5,1233C 2195.6,1177.55 2268.6,1161.55 2350.5,1185C 2415.09,1208.26 2460.93,1251.43 2488,1314.5C 2512.1,1381.65 2506.76,1446.32 2472,1508.5C 2471.23,1509.6 2470.4,1509.6 2469.5,1508.5 Z"/></g>
<g><path style="opacity:1" fill="#efefef" d="M 2445.5,1467.5 C 2427.98,1451.82 2409.98,1436.66 2391.5,1422C 2389.09,1420.29 2386.42,1419.46 2383.5,1419.5C 2384.35,1426.55 2386.52,1433.22 2390,1439.5C 2396.31,1452.78 2403.14,1465.78 2410.5,1478.5C 2389.65,1483.62 2370.31,1492.12 2352.5,1504C 2348.96,1507.2 2345.8,1510.7 2343,1514.5C 2340.78,1520.98 2341.11,1527.31 2344,1533.5C 2350.34,1540.67 2356.84,1547.67 2363.5,1554.5C 2301.55,1582.83 2241.55,1579.33 2183.5,1544C 2125.66,1502.47 2099.5,1445.97 2105,1374.5C 2117.09,1300.09 2158.59,1250.25 2229.5,1225C 2295.29,1207.39 2353.63,1221.05 2404.5,1266C 2460.37,1324.33 2474.03,1391.5 2445.5,1467.5 Z"/></g>
<g><path style="opacity:1" fill="#74ac92" d="M 2211.5,1281.5 C 2217.38,1281.05 2223.05,1281.88 2228.5,1284C 2281.17,1316 2333.83,1348 2386.5,1380C 2395.96,1388.1 2398.13,1397.93 2393,1409.5C 2390.57,1413.13 2387.41,1415.97 2383.5,1418C 2330.83,1448 2278.17,1478 2225.5,1508C 2211.58,1511.79 2202.08,1506.95 2197,1493.5C 2196.33,1427.83 2196.33,1362.17 2197,1296.5C 2200.02,1289.65 2204.85,1284.65 2211.5,1281.5 Z"/></g>
<g><path style="opacity:1" fill="#fcc2cb" d="M 2754.5,1320.5 C 2781.59,1333.1 2798.09,1354.1 2804,1383.5C 2805.03,1392.72 2804.03,1401.72 2801,1410.5C 2796.74,1420.26 2793.08,1430.26 2790,1440.5C 2786.74,1454.48 2789.08,1467.48 2797,1479.5C 2807.69,1493.53 2816.85,1508.53 2824.5,1524.5C 2824.17,1524.83 2823.83,1525.17 2823.5,1525.5C 2820.6,1523.88 2817.6,1522.55 2814.5,1521.5C 2809.44,1517.78 2804.1,1514.45 2798.5,1511.5C 2751.08,1473.95 2731.24,1424.95 2739,1364.5C 2741.31,1348.73 2746.48,1334.07 2754.5,1320.5 Z"/></g>
<g><path style="opacity:1" fill="#e6e7e6" d="M 1586.5,1355.5 C 1598.76,1354.21 1607.26,1359.21 1612,1370.5C 1612.83,1389 1604,1397.17 1585.5,1395C 1574.27,1389.68 1570.1,1380.85 1573,1368.5C 1576.08,1362.59 1580.58,1358.26 1586.5,1355.5 Z"/></g>
<g><path style="opacity:1" fill="#fcc1cb" d="M 2445.5,1467.5 C 2456.47,1479.35 2464.47,1493.02 2469.5,1508.5C 2477.71,1531.03 2480.88,1554.37 2479,1578.5C 2472.79,1608.54 2466.46,1638.54 2460,1668.5C 2460.13,1692.5 2463.13,1716.17 2469,1739.5C 2470.74,1761.59 2465.9,1782.09 2454.5,1801C 2469.28,1795.96 2483.95,1790.29 2498.5,1784C 2510.44,1779.03 2521.77,1773.03 2532.5,1766C 2559.57,1735.6 2588.57,1707.27 2619.5,1681C 2626.78,1675.39 2634.78,1671.06 2643.5,1668C 2663.63,1663.52 2683.97,1662.36 2704.5,1664.5C 2710.59,1713.14 2716.42,1761.81 2722,1810.5C 2724.25,1835.66 2720.25,1859.66 2710,1882.5C 2699.56,1899.95 2684.89,1912.28 2666,1919.5C 2654.47,1901.43 2645.3,1882.1 2638.5,1861.5C 2637.3,1863.14 2636.3,1864.81 2635.5,1866.5C 2634.33,1865.19 2632.83,1864.52 2631,1864.5C 2627.79,1865.52 2624.62,1866.69 2621.5,1868C 2593.85,1882.49 2566.51,1897.49 2539.5,1913C 2532.4,1916.88 2525.07,1920.21 2517.5,1923C 2479.82,1929.93 2441.82,1932.93 2403.5,1932C 2391.92,1929.1 2382.42,1922.93 2375,1913.5C 2369.93,1904.07 2365.6,1894.41 2362,1884.5C 2359.47,1868.93 2357.97,1853.26 2357.5,1837.5C 2357.33,1831.82 2357.5,1826.16 2358,1820.5C 2370.37,1743.39 2381.21,1666.06 2390.5,1588.5C 2391.57,1583.82 2391.57,1579.16 2390.5,1574.5C 2380.58,1569.04 2371.58,1562.38 2363.5,1554.5C 2356.84,1547.67 2350.34,1540.67 2344,1533.5C 2341.11,1527.31 2340.78,1520.98 2343,1514.5C 2345.8,1510.7 2348.96,1507.2 2352.5,1504C 2370.31,1492.12 2389.65,1483.62 2410.5,1478.5C 2403.14,1465.78 2396.31,1452.78 2390,1439.5C 2386.52,1433.22 2384.35,1426.55 2383.5,1419.5C 2386.42,1419.46 2389.09,1420.29 2391.5,1422C 2409.98,1436.66 2427.98,1451.82 2445.5,1467.5 Z"/></g>
<g><path style="opacity:0.992" fill="#699a83" d="M 819.5,1467.5 C 821.857,1467.34 824.19,1467.5 826.5,1468C 810.474,1474.22 806.307,1485.06 814,1500.5C 817.579,1506.91 822.079,1512.58 827.5,1517.5C 832.157,1513.61 837.49,1511.28 843.5,1510.5C 843.5,1512.5 843.5,1514.5 843.5,1516.5C 836.047,1517.31 829.88,1520.65 825,1526.5C 821.882,1531.86 819.549,1537.52 818,1543.5C 816.621,1557.35 814.288,1571.01 811,1584.5C 804.401,1599.38 795.568,1612.71 784.5,1624.5C 796.18,1634.53 804.346,1646.86 809,1661.5C 809.667,1663.5 809.667,1665.5 809,1667.5C 807.086,1660.34 804.086,1653.67 800,1647.5C 793.288,1639.29 785.788,1631.95 777.5,1625.5C 790.633,1611.58 800.466,1595.58 807,1577.5C 808.418,1564.74 810.418,1552.07 813,1539.5C 814.827,1532.34 818.327,1526.17 823.5,1521C 817.572,1515.08 812.406,1508.58 808,1501.5C 799.871,1485.99 803.704,1474.66 819.5,1467.5 Z"/></g>
<g><path style="opacity:0.99" fill="#699a82" d="M 657.5,1753.5 C 655.5,1753.5 653.5,1753.5 651.5,1753.5C 655.162,1741.35 659.329,1729.35 664,1717.5C 674.289,1691.41 687.789,1667.24 704.5,1645C 684.241,1633.08 666.741,1617.91 652,1599.5C 640.757,1583.53 636.257,1565.86 638.5,1546.5C 628.736,1538.24 620.236,1528.91 613,1518.5C 606.23,1508.88 604.563,1498.55 608,1487.5C 610.541,1482.93 614.375,1481.43 619.5,1483C 618.069,1483.47 616.903,1484.3 616,1485.5C 612.139,1492.49 611.472,1499.83 614,1507.5C 616.493,1513.16 619.493,1518.49 623,1523.5C 629.969,1531.47 637.302,1539.14 645,1546.5C 647.574,1533.69 653.074,1522.35 661.5,1512.5C 666.011,1509.21 671.011,1506.88 676.5,1505.5C 675.37,1498.55 675.203,1491.55 676,1484.5C 676.146,1478.56 677.979,1473.23 681.5,1468.5C 684.721,1465.02 688.388,1464.19 692.5,1466C 687.948,1467.59 685.115,1470.75 684,1475.5C 682.624,1484.1 682.124,1492.76 682.5,1501.5C 685.607,1501.35 688.607,1501.85 691.5,1503C 696.37,1504.6 696.703,1506.77 692.5,1509.5C 684.003,1506.19 676.003,1507.02 668.5,1512C 641.986,1535.89 637.486,1563.39 655,1594.5C 669.146,1614.15 686.646,1630.15 707.5,1642.5C 712.624,1636.87 717.958,1631.37 723.5,1626C 729.835,1620.33 737.168,1616.5 745.5,1614.5C 746.768,1616.3 747.435,1618.3 747.5,1620.5C 744.053,1620.81 740.72,1621.65 737.5,1623C 724.135,1630.7 712.968,1640.86 704,1653.5C 683.418,1684.39 667.918,1717.72 657.5,1753.5 Z"/></g>
<g><path style="opacity:1" fill="#fcc1cb" d="M 2814.5,1525.5 C 2817.92,1527.38 2821.59,1528.38 2825.5,1528.5C 2827.82,1539.7 2828.82,1551.04 2828.5,1562.5C 2826.37,1597.81 2825.54,1633.14 2826,1668.5C 2827,1673.66 2828.5,1678.66 2830.5,1683.5C 2827.89,1684.65 2825.23,1684.82 2822.5,1684C 2791.87,1677.76 2762.2,1668.6 2733.5,1656.5C 2752.56,1646.3 2772.23,1637.14 2792.5,1629C 2796,1626.83 2798.83,1624 2801,1620.5C 2803.53,1615.25 2805.86,1609.92 2808,1604.5C 2813.41,1578.47 2815.58,1552.13 2814.5,1525.5 Z"/></g>
<g><path style="opacity:1" fill="#ddaab3" d="M 2756.5,1316.5 C 2761.04,1317.77 2765.38,1319.6 2769.5,1322C 2797.57,1339.31 2810.4,1364.47 2808,1397.5C 2803.34,1411.48 2798.67,1425.48 2794,1439.5C 2793.33,1444.5 2793.33,1449.5 2794,1454.5C 2795.59,1462.68 2798.59,1470.35 2803,1477.5C 2810.06,1486.89 2816.72,1496.56 2823,1506.5C 2831.87,1524.65 2835.03,1543.82 2832.5,1564C 2831.4,1597.83 2830.9,1631.66 2831,1665.5C 2832.25,1675.65 2836.41,1684.32 2843.5,1691.5C 2839.75,1691.25 2836.08,1690.58 2832.5,1689.5C 2797.23,1683.2 2763.23,1672.87 2730.5,1658.5C 2730.97,1657.09 2731.97,1656.43 2733.5,1656.5C 2762.2,1668.6 2791.87,1677.76 2822.5,1684C 2825.23,1684.82 2827.89,1684.65 2830.5,1683.5C 2828.5,1678.66 2827,1673.66 2826,1668.5C 2825.54,1633.14 2826.37,1597.81 2828.5,1562.5C 2828.82,1551.04 2827.82,1539.7 2825.5,1528.5C 2821.59,1528.38 2817.92,1527.38 2814.5,1525.5C 2814.5,1524.17 2814.5,1522.83 2814.5,1521.5C 2817.6,1522.55 2820.6,1523.88 2823.5,1525.5C 2823.83,1525.17 2824.17,1524.83 2824.5,1524.5C 2816.85,1508.53 2807.69,1493.53 2797,1479.5C 2789.08,1467.48 2786.74,1454.48 2790,1440.5C 2793.08,1430.26 2796.74,1420.26 2801,1410.5C 2804.03,1401.72 2805.03,1392.72 2804,1383.5C 2798.09,1354.1 2781.59,1333.1 2754.5,1320.5C 2754.66,1318.85 2755.33,1317.51 2756.5,1316.5 Z"/></g>
<g><path style="opacity:1" fill="#f9c0ca" d="M 3140.5,1630.5 C 3145.8,1636.64 3151.64,1642.3 3158,1647.5C 3158.67,1648.83 3159.33,1650.17 3160,1651.5C 3167,1670.83 3172.84,1690.5 3177.5,1710.5C 3165.81,1702.15 3155.81,1692.15 3147.5,1680.5C 3145.6,1673.11 3142.93,1666.11 3139.5,1659.5C 3138.17,1649.83 3138.5,1640.16 3140.5,1630.5 Z"/></g>
<g><path style="opacity:1" fill="#81a792" d="M 3139.5,1659.5 C 3142.93,1666.11 3145.6,1673.11 3147.5,1680.5C 3142.88,1674.32 3140.21,1667.32 3139.5,1659.5 Z"/></g>
<g><path style="opacity:1" fill="#689880" d="M 2832.5,1689.5 C 2836.08,1690.58 2839.75,1691.25 2843.5,1691.5C 2846.65,1693.57 2849.98,1695.41 2853.5,1697C 2862.16,1699 2870.83,1701 2879.5,1703C 2888,1705.51 2894.84,1710.34 2900,1717.5C 2908.26,1732.4 2912.26,1748.4 2912,1765.5C 2912.42,1797.84 2912.42,1830.17 2912,1862.5C 2913.44,1869.93 2917.27,1875.77 2923.5,1880C 2945.23,1889.19 2967.9,1894.35 2991.5,1895.5C 3002.99,1896.33 3014.66,1896.83 3026.5,1897C 3041.24,1897.69 3054.24,1902.69 3065.5,1912C 3081.21,1929.32 3099.21,1943.49 3119.5,1954.5C 3118.59,1956.02 3117.76,1957.69 3117,1959.5C 3103.22,1952.37 3090.39,1943.87 3078.5,1934C 3071.14,1926.3 3063.47,1918.97 3055.5,1912C 3047.44,1906.14 3038.44,1902.81 3028.5,1902C 2992.96,1902.73 2958.3,1897.73 2924.5,1887C 2914.73,1883.56 2908.89,1876.73 2907,1866.5C 2907.36,1835.5 2907.36,1804.5 2907,1773.5C 2907.02,1757.98 2904.35,1742.98 2899,1728.5C 2893.52,1717.16 2884.68,1709.66 2872.5,1706C 2856.8,1705.83 2843.46,1700.33 2832.5,1689.5 Z"/></g>
<g><path style="opacity:1" fill="#4a4b4a" d="M 651.5,1753.5 C 653.5,1753.5 655.5,1753.5 657.5,1753.5C 720.833,1753.5 784.167,1753.5 847.5,1753.5C 847.5,1809.5 847.5,1865.5 847.5,1921.5C 838.5,1921.5 829.5,1921.5 820.5,1921.5C 820.5,1924.83 820.5,1928.17 820.5,1931.5C 820.5,1938.17 820.5,1944.83 820.5,1951.5C 820.5,1953.5 820.5,1955.5 820.5,1957.5C 755.5,1957.5 690.5,1957.5 625.5,1957.5C 625.826,1949.32 625.492,1941.32 624.5,1933.5C 624.167,1933.5 623.833,1933.5 623.5,1933.5C 623.5,1929.5 623.5,1925.5 623.5,1921.5C 614.167,1921.5 604.833,1921.5 595.5,1921.5C 595.5,1865.5 595.5,1809.5 595.5,1753.5C 614.167,1753.5 632.833,1753.5 651.5,1753.5 Z"/></g>
<g><path style="opacity:0.997" fill="#6d6e6d" d="M 3795.5,1910.5 C 3804.97,1911.03 3814.31,1912.53 3823.5,1915C 3936.37,1939.54 4049.03,1964.37 4161.5,1989.5C 3830.17,1991.47 3498.83,1993.47 3167.5,1995.5C 3168.87,1986.88 3169.87,1978.21 3170.5,1969.5C 3177.15,1970.38 3183.82,1970.55 3190.5,1970C 3202.39,1968.22 3205.39,1962.22 3199.5,1952C 3223.03,1950.3 3235.03,1937.8 3235.5,1914.5C 3422.16,1912.71 3608.83,1911.37 3795.5,1910.5 Z"/></g>
<g><path style="opacity:0.998" fill="#6d6e6c" d="M 1560.5,1925.5 C 1575.29,1936.43 1591.96,1942.43 1610.5,1943.5C 1945,1944.5 2279.67,1944.83 2614.5,1944.5C 2614.76,1962.83 2615.1,1981.17 2615.5,1999.5C 2608.69,1998.91 2601.86,1998.58 2595,1998.5C 1730.17,2004.09 865.336,2009.42 0.5,2014.5C 128.971,1988.04 257.637,1961.87 386.5,1936C 446.488,1934.75 506.488,1933.92 566.5,1933.5C 585.5,1933.5 604.5,1933.5 623.5,1933.5C 623.833,1933.5 624.167,1933.5 624.5,1933.5C 624.807,1939.09 624.473,1944.59 623.5,1950C 603.474,1950.48 583.474,1951.48 563.5,1953C 550.703,1953.72 538.036,1955.38 525.5,1958C 523.777,1958.52 522.444,1959.52 521.5,1961C 521.905,1961.95 522.572,1962.61 523.5,1963C 533.65,1965.73 543.983,1967.39 554.5,1968C 579.13,1970 603.797,1971.33 628.5,1972C 682.167,1972.67 735.833,1972.67 789.5,1972C 822.304,1971.48 854.97,1969.15 887.5,1965C 898.924,1962.78 899.258,1960.11 888.5,1957C 865.968,1953.51 843.301,1951.68 820.5,1951.5C 820.5,1944.83 820.5,1938.17 820.5,1931.5C 1067.34,1930.44 1314.01,1928.44 1560.5,1925.5 Z"/></g>
<g><path style="opacity:1" fill="#5c5d5c" d="M 2615.5,1942.5 C 2615.67,1943.49 2615.34,1944.16 2614.5,1944.5C 2279.67,1944.83 1945,1944.5 1610.5,1943.5C 1945.57,1943.83 2280.57,1943.5 2615.5,1942.5 Z"/></g>
<g><path style="opacity:1" fill="#616261" d="M 624.5,1933.5 C 625.492,1941.32 625.826,1949.32 625.5,1957.5C 690.5,1957.5 755.5,1957.5 820.5,1957.5C 820.5,1955.5 820.5,1953.5 820.5,1951.5C 843.301,1951.68 865.968,1953.51 888.5,1957C 899.258,1960.11 898.924,1962.78 887.5,1965C 854.97,1969.15 822.304,1971.48 789.5,1972C 735.833,1972.67 682.167,1972.67 628.5,1972C 603.797,1971.33 579.13,1970 554.5,1968C 543.983,1967.39 533.65,1965.73 523.5,1963C 522.572,1962.61 521.905,1961.95 521.5,1961C 522.444,1959.52 523.777,1958.52 525.5,1958C 538.036,1955.38 550.703,1953.72 563.5,1953C 583.474,1951.48 603.474,1950.48 623.5,1950C 624.473,1944.59 624.807,1939.09 624.5,1933.5 Z"/></g>
<g><path style="opacity:1" fill="#fbc1cb" d="M 3130.5,1959.5 C 3143.53,1964.01 3156.86,1967.35 3170.5,1969.5C 3169.87,1978.21 3168.87,1986.88 3167.5,1995.5C 3165.03,2010.77 3163.03,2026.1 3161.5,2041.5C 3145.5,2043.5 3129.5,2045.5 3113.5,2047.5C 3119.68,2018.29 3125.34,1988.95 3130.5,1959.5 Z"/></g>
<g><path style="opacity:0.999" fill="#626362" d="M 2615.5,1999.5 C 2615.74,2025.05 2621.24,2049.38 2632,2072.5C 2634.59,2076.68 2637.42,2080.68 2640.5,2084.5C 2637.5,2084.83 2634.5,2085.17 2631.5,2085.5C 2051.17,2092.31 1470.84,2098.97 890.5,2105.5C 890.5,2107.83 890.5,2110.17 890.5,2112.5C 860.241,2113.64 829.908,2114.31 799.5,2114.5C 798.908,2111.87 798.575,2109.21 798.5,2106.5C 668.158,2107.19 537.824,2108.52 407.5,2110.5C 271.499,2112.14 135.499,2113.8 -0.5,2115.5C -0.5,2081.83 -0.5,2048.17 -0.5,2014.5C -0.166667,2014.5 0.166667,2014.5 0.5,2014.5C 865.336,2009.42 1730.17,2004.09 2595,1998.5C 2601.86,1998.58 2608.69,1998.91 2615.5,1999.5 Z"/></g>
<g><path style="opacity:1" fill="#4b4c4b" d="M 3347.5,2077.5 C 3348.88,2081.71 3349.88,2086.04 3350.5,2090.5C 3348.83,2097.19 3347.16,2103.85 3345.5,2110.5C 3345.17,2110.5 3344.83,2110.5 3344.5,2110.5C 3339.56,2097.72 3330.9,2088.22 3318.5,2082C 3304.13,2075.1 3288.96,2072.6 3273,2074.5C 3202.79,2075.37 3133.29,2082.54 3064.5,2096C 3029.21,2102.76 2995.54,2114.1 2963.5,2130C 2938.11,2146.53 2911.11,2160.2 2882.5,2171C 2878.42,2171.23 2874.42,2171.9 2870.5,2173C 2822.22,2204.42 2790.72,2247.92 2776,2303.5C 2774.84,2309.44 2774.34,2315.44 2774.5,2321.5C 2774.17,2321.5 2773.83,2321.5 2773.5,2321.5C 2772.49,2283.02 2781.99,2247.35 2802,2214.5C 2819.29,2185.88 2841.46,2161.71 2868.5,2142C 2878.87,2139.88 2888.87,2136.54 2898.5,2132C 2922.32,2119.93 2945.32,2106.6 2967.5,2092C 2991.16,2079.78 3015.83,2070.11 3041.5,2063C 3065.48,2057.07 3089.48,2051.9 3113.5,2047.5C 3129.5,2045.5 3145.5,2043.5 3161.5,2041.5C 3206.34,2036.24 3251.34,2033.74 3296.5,2034C 3321.59,2039.19 3338.59,2053.69 3347.5,2077.5 Z"/></g>
<g><path style="opacity:1" fill="#434543" d="M 3344.5,2110.5 C 3332.96,2151 3323.46,2192 3316,2233.5C 3314.5,2243.47 3313.34,2253.47 3312.5,2263.5C 3313.5,2263.5 3314.5,2263.5 3315.5,2263.5C 3313.26,2276.75 3312.59,2290.09 3313.5,2303.5C 3312.74,2319.3 3310.07,2334.63 3305.5,2349.5C 3294.22,2387.18 3281.22,2424.34 3266.5,2461C 3266.57,2461.76 3266.9,2462.26 3267.5,2462.5C 3267.5,2462.83 3267.5,2463.17 3267.5,2463.5C 3266.96,2463.56 3266.62,2463.89 3266.5,2464.5C 3275.74,2478.64 3283.07,2493.64 3288.5,2509.5C 3289.76,2512.26 3290.59,2515.26 3291,2518.5C 3292.48,2527.53 3292.48,2536.53 3291,2545.5C 3285.19,2563.45 3276.53,2579.78 3265,2594.5C 3232.24,2634.11 3193.41,2666.11 3148.5,2690.5C 3148.17,2677.82 3148.5,2665.15 3149.5,2652.5C 3188.86,2628.31 3222.36,2597.65 3250,2560.5C 3257.46,2548.8 3263.8,2536.47 3269,2523.5C 3271.89,2506.52 3269.89,2490.19 3263,2474.5C 3249.24,2498.59 3230.41,2517.76 3206.5,2532C 3192.08,2540.51 3177.08,2546.67 3161.5,2550.5C 3157.21,2551.71 3152.88,2552.71 3148.5,2553.5C 3147.6,2552.79 3147.26,2551.79 3147.5,2550.5C 3125.5,2550.5 3103.5,2550.5 3081.5,2550.5C 3081.82,2554.7 3081.48,2558.7 3080.5,2562.5C 3050.88,2562.63 3021.55,2559.8 2992.5,2554C 2986.27,2552.78 2980.27,2550.95 2974.5,2548.5C 2931.41,2526.23 2891.41,2499.4 2854.5,2468C 2826.97,2443.73 2805.14,2415.23 2789,2382.5C 2780.23,2363.09 2775.4,2342.76 2774.5,2321.5C 2774.34,2315.44 2774.84,2309.44 2776,2303.5C 2790.72,2247.92 2822.22,2204.42 2870.5,2173C 2874.42,2171.9 2878.42,2171.23 2882.5,2171C 2911.11,2160.2 2938.11,2146.53 2963.5,2130C 2995.54,2114.1 3029.21,2102.76 3064.5,2096C 3133.29,2082.54 3202.79,2075.37 3273,2074.5C 3288.96,2072.6 3304.13,2075.1 3318.5,2082C 3330.9,2088.22 3339.56,2097.72 3344.5,2110.5 Z"/></g>
<g><path style="opacity:0.101" fill="#73ab91" d="M 3634.5,2074.5 C 3588.81,2110.19 3540.81,2142.69 3490.5,2172C 3433.62,2204.77 3375.29,2234.94 3315.5,2262.5C 3323.78,2216.48 3335.45,2171.32 3350.5,2127C 3349.7,2121.12 3348.04,2115.62 3345.5,2110.5C 3347.16,2103.85 3348.83,2097.19 3350.5,2090.5C 3349.88,2086.04 3348.88,2081.71 3347.5,2077.5C 3443.17,2076.92 3538.84,2075.92 3634.5,2074.5 Z"/></g>
<g><path style="opacity:0.999" fill="#616261" d="M 4161.5,1989.5 C 4161.83,1989.5 4162.17,1989.5 4162.5,1989.5C 4162.5,2337.5 4162.5,2685.5 4162.5,3033.5C 4134.17,3033.5 4105.83,3033.5 4077.5,3033.5C 4077.5,2714.83 4077.5,2396.17 4077.5,2077.5C 3964.51,2079.17 3851.51,2080.5 3738.5,2081.5C 3738.5,2078.83 3738.5,2076.17 3738.5,2073.5C 3703.84,2074.1 3669.17,2074.43 3634.5,2074.5C 3538.84,2075.92 3443.17,2076.92 3347.5,2077.5C 3338.59,2053.69 3321.59,2039.19 3296.5,2034C 3251.34,2033.74 3206.34,2036.24 3161.5,2041.5C 3163.03,2026.1 3165.03,2010.77 3167.5,1995.5C 3498.83,1993.47 3830.17,1991.47 4161.5,1989.5 Z"/></g>
<g><path style="opacity:0.999" fill="#6c6d6c" d="M 4077.5,3033.5 C 3964.78,2951.05 3851.95,2868.72 3739,2786.5C 3738.5,2551.5 3738.33,2316.5 3738.5,2081.5C 3851.51,2080.5 3964.51,2079.17 4077.5,2077.5C 4077.5,2396.17 4077.5,2714.83 4077.5,3033.5 Z"/></g>
<g><path style="opacity:0.102" fill="#74ab91" d="M 2730.5,1658.5 C 2763.23,1672.87 2797.23,1683.2 2832.5,1689.5C 2843.46,1700.33 2856.8,1705.83 2872.5,1706C 2884.68,1709.66 2893.52,1717.16 2899,1728.5C 2904.35,1742.98 2907.02,1757.98 2907,1773.5C 2907.36,1804.5 2907.36,1835.5 2907,1866.5C 2908.89,1876.73 2914.73,1883.56 2924.5,1887C 2958.3,1897.73 2992.96,1902.73 3028.5,1902C 3038.44,1902.81 3047.44,1906.14 3055.5,1912C 3063.47,1918.97 3071.14,1926.3 3078.5,1934C 3090.39,1943.87 3103.22,1952.37 3117,1959.5C 3117.76,1957.69 3118.59,1956.02 3119.5,1954.5C 3123.5,1955.6 3127.16,1957.27 3130.5,1959.5C 3125.34,1988.95 3119.68,2018.29 3113.5,2047.5C 3089.48,2051.9 3065.48,2057.07 3041.5,2063C 3015.83,2070.11 2991.16,2079.78 2967.5,2092C 2945.32,2106.6 2922.32,2119.93 2898.5,2132C 2888.87,2136.54 2878.87,2139.88 2868.5,2142C 2841.46,2161.71 2819.29,2185.88 2802,2214.5C 2781.99,2247.35 2772.49,2283.02 2773.5,2321.5C 2772.2,2352.31 2779.37,2380.98 2795,2407.5C 2809.86,2431.37 2828.02,2452.53 2849.5,2471C 2887.67,2502.31 2929.34,2528.14 2974.5,2548.5C 2980.27,2550.95 2986.27,2552.78 2992.5,2554C 3021.55,2559.8 3050.88,2562.63 3080.5,2562.5C 3080.81,2574.58 3080.48,2586.58 3079.5,2598.5C 3061.97,2605.29 3044.31,2611.79 3026.5,2618C 3015.39,2621.29 3004.06,2623.29 2992.5,2624C 2944.81,2626.98 2897.48,2624.14 2850.5,2615.5C 2830.29,2607.79 2814.46,2594.79 2803,2576.5C 2780.4,2535.61 2766.07,2491.94 2760,2445.5C 2757.35,2428.27 2756.01,2410.93 2756,2393.5C 2750.04,2356.58 2734.7,2324.25 2710,2296.5C 2702.27,2288.6 2694.44,2280.94 2686.5,2273.5C 2697.03,2252.29 2699.86,2229.96 2695,2206.5C 2686.83,2167.17 2672.67,2130.17 2652.5,2095.5C 2676.87,2100.49 2698.54,2094.99 2717.5,2079C 2722.33,2074.17 2727.17,2069.33 2732,2064.5C 2734.62,2059.45 2733.12,2057.61 2727.5,2059C 2720.4,2061.38 2713.4,2064.05 2706.5,2067C 2688.11,2076.19 2669.78,2085.36 2651.5,2094.5C 2650.54,2094.05 2649.71,2093.38 2649,2092.5C 2654.32,2104.14 2659.99,2115.81 2666,2127.5C 2681.58,2159.09 2690.75,2192.42 2693.5,2227.5C 2693.16,2241.52 2690,2254.85 2684,2267.5C 2683.58,2268.76 2682.75,2269.42 2681.5,2269.5C 2659.26,2252.87 2635.26,2239.04 2609.5,2228C 2593.44,2222.37 2577.44,2216.87 2561.5,2211.5C 2552.17,2207.99 2542.5,2205.16 2532.5,2203C 2513.42,2199.32 2494.42,2195.32 2475.5,2191C 2439.76,2185.02 2410.26,2195.86 2387,2223.5C 2378.41,2235.01 2371.07,2247.34 2365,2260.5C 2353,2300.5 2337.66,2339.17 2319,2376.5C 2305.22,2407.08 2299.55,2439.08 2302,2472.5C 2302.26,2475.59 2302.76,2478.59 2303.5,2481.5C 1985.21,2458.67 1673.54,2400.51 1368.5,2307C 1204.34,2256.08 1045.01,2193.24 890.5,2118.5C 890.5,2116.5 890.5,2114.5 890.5,2112.5C 890.5,2110.17 890.5,2107.83 890.5,2105.5C 1470.84,2098.97 2051.17,2092.31 2631.5,2085.5C 2634.5,2085.17 2637.5,2084.83 2640.5,2084.5C 2637.42,2080.68 2634.59,2076.68 2632,2072.5C 2621.24,2049.38 2615.74,2025.05 2615.5,1999.5C 2615.1,1981.17 2614.76,1962.83 2614.5,1944.5C 2615.34,1944.16 2615.67,1943.49 2615.5,1942.5C 2619.04,1916.33 2625.71,1890.99 2635.5,1866.5C 2636.3,1864.81 2637.3,1863.14 2638.5,1861.5C 2645.3,1882.1 2654.47,1901.43 2666,1919.5C 2684.89,1912.28 2699.56,1899.95 2710,1882.5C 2720.25,1859.66 2724.25,1835.66 2722,1810.5C 2716.42,1761.81 2710.59,1713.14 2704.5,1664.5C 2703.64,1659.72 2705.31,1656.22 2709.5,1654C 2717.21,1652.39 2724.21,1653.89 2730.5,1658.5 Z"/></g>
<g><path style="opacity:1" fill="#699a82" d="M 2652.5,2095.5 C 2651.83,2095.5 2651.5,2095.17 2651.5,2094.5C 2669.78,2085.36 2688.11,2076.19 2706.5,2067C 2713.4,2064.05 2720.4,2061.38 2727.5,2059C 2733.12,2057.61 2734.62,2059.45 2732,2064.5C 2727.17,2069.33 2722.33,2074.17 2717.5,2079C 2698.54,2094.99 2676.87,2100.49 2652.5,2095.5 Z"/></g>
<g><path style="opacity:0.215" fill="#7a9388" d="M 2651.5,2094.5 C 2651.5,2095.17 2651.83,2095.5 2652.5,2095.5C 2672.67,2130.17 2686.83,2167.17 2695,2206.5C 2699.86,2229.96 2697.03,2252.29 2686.5,2273.5C 2684.61,2272.4 2682.94,2271.06 2681.5,2269.5C 2682.75,2269.42 2683.58,2268.76 2684,2267.5C 2690,2254.85 2693.16,2241.52 2693.5,2227.5C 2690.75,2192.42 2681.58,2159.09 2666,2127.5C 2659.99,2115.81 2654.32,2104.14 2649,2092.5C 2649.71,2093.38 2650.54,2094.05 2651.5,2094.5 Z"/></g>
<g><path style="opacity:0.999" fill="#575857" d="M 799.5,2114.5 C 668.835,2115.97 538.168,2117.3 407.5,2118.5C 407.5,2115.83 407.5,2113.17 407.5,2110.5C 537.824,2108.52 668.158,2107.19 798.5,2106.5C 798.575,2109.21 798.908,2111.87 799.5,2114.5 Z"/></g>
<g><path style="opacity:0.995" fill="#6c6d6c" d="M 890.5,2112.5 C 890.5,2114.5 890.5,2116.5 890.5,2118.5C 886.097,2339.82 881.931,2561.15 878,2782.5C 877.827,2786.72 876.827,2790.72 875,2794.5C 840.954,2874.84 806.454,2954.84 771.5,3034.5C 781.096,2727.85 790.429,2421.18 799.5,2114.5C 829.908,2114.31 860.241,2113.64 890.5,2112.5 Z"/></g>
<g><path style="opacity:0.999" fill="#626362" d="M 799.5,2114.5 C 790.429,2421.18 781.096,2727.85 771.5,3034.5C 650.173,3036.27 528.84,3037.61 407.5,3038.5C 407.5,2731.83 407.5,2425.17 407.5,2118.5C 538.168,2117.3 668.835,2115.97 799.5,2114.5 Z"/></g>
<g><path style="opacity:0.291" fill="#4e5f57" d="M 3344.5,2110.5 C 3344.83,2110.5 3345.17,2110.5 3345.5,2110.5C 3348.04,2115.62 3349.7,2121.12 3350.5,2127C 3335.45,2171.32 3323.78,2216.48 3315.5,2262.5C 3315.5,2262.83 3315.5,2263.17 3315.5,2263.5C 3314.5,2263.5 3313.5,2263.5 3312.5,2263.5C 3313.34,2253.47 3314.5,2243.47 3316,2233.5C 3323.46,2192 3332.96,2151 3344.5,2110.5 Z"/></g>
<g><path style="opacity:0.227" fill="#7a9187" d="M 2561.5,2211.5 C 2532.92,2205.02 2504.25,2198.85 2475.5,2193C 2442.49,2189.33 2415.32,2200.17 2394,2225.5C 2385.41,2237.01 2378.07,2249.34 2372,2262.5C 2364.47,2283.41 2357.14,2304.41 2350,2325.5C 2342.2,2344.43 2333.87,2363.1 2325,2381.5C 2315.56,2403.92 2309.89,2427.26 2308,2451.5C 2307.28,2461.58 2307.78,2471.58 2309.5,2481.5C 2307.5,2481.5 2305.5,2481.5 2303.5,2481.5C 2302.76,2478.59 2302.26,2475.59 2302,2472.5C 2299.55,2439.08 2305.22,2407.08 2319,2376.5C 2337.66,2339.17 2353,2300.5 2365,2260.5C 2371.07,2247.34 2378.41,2235.01 2387,2223.5C 2410.26,2195.86 2439.76,2185.02 2475.5,2191C 2494.42,2195.32 2513.42,2199.32 2532.5,2203C 2542.5,2205.16 2552.17,2207.99 2561.5,2211.5 Z"/></g>
<g><path style="opacity:1" fill="#434543" d="M 2561.5,2211.5 C 2577.44,2216.87 2593.44,2222.37 2609.5,2228C 2635.26,2239.04 2659.26,2252.87 2681.5,2269.5C 2682.94,2271.06 2684.61,2272.4 2686.5,2273.5C 2694.44,2280.94 2702.27,2288.6 2710,2296.5C 2734.7,2324.25 2750.04,2356.58 2756,2393.5C 2756.01,2410.93 2757.35,2428.27 2760,2445.5C 2766.07,2491.94 2780.4,2535.61 2803,2576.5C 2814.46,2594.79 2830.29,2607.79 2850.5,2615.5C 2852.67,2617.08 2855.01,2618.58 2857.5,2620C 2884.01,2630.31 2911.34,2637.97 2939.5,2643C 2986.22,2650.6 3033.22,2655.1 3080.5,2656.5C 3080.5,2668.5 3080.5,2680.5 3080.5,2692.5C 3102.17,2692.5 3123.83,2692.5 3145.5,2692.5C 3062.93,2706.31 2979.93,2708.64 2896.5,2699.5C 2871.25,2695.65 2846.91,2688.65 2823.5,2678.5C 2823.17,2678.5 2822.83,2678.5 2822.5,2678.5C 2813.05,2672.89 2803.72,2667.06 2794.5,2661C 2758.85,2652.62 2723.18,2644.45 2687.5,2636.5C 2686,2635.51 2684.33,2635.51 2682.5,2636.5C 2662.17,2631.83 2641.83,2627.17 2621.5,2622.5C 2615.68,2620.49 2609.68,2618.66 2603.5,2617C 2545.89,2603.85 2488.22,2591.02 2430.5,2578.5C 2427.38,2577.52 2424.04,2577.19 2420.5,2577.5C 2393.33,2572.24 2368.66,2561.57 2346.5,2545.5C 2326.45,2528.75 2314.12,2507.41 2309.5,2481.5C 2307.78,2471.58 2307.28,2461.58 2308,2451.5C 2309.89,2427.26 2315.56,2403.92 2325,2381.5C 2333.87,2363.1 2342.2,2344.43 2350,2325.5C 2357.14,2304.41 2364.47,2283.41 2372,2262.5C 2378.07,2249.34 2385.41,2237.01 2394,2225.5C 2415.32,2200.17 2442.49,2189.33 2475.5,2193C 2504.25,2198.85 2532.92,2205.02 2561.5,2211.5 Z"/></g>
<g><path style="opacity:1" fill="#689880" d="M 2773.5,2321.5 C 2773.83,2321.5 2774.17,2321.5 2774.5,2321.5C 2775.4,2342.76 2780.23,2363.09 2789,2382.5C 2805.14,2415.23 2826.97,2443.73 2854.5,2468C 2891.41,2499.4 2931.41,2526.23 2974.5,2548.5C 2929.34,2528.14 2887.67,2502.31 2849.5,2471C 2828.02,2452.53 2809.86,2431.37 2795,2407.5C 2779.37,2380.98 2772.2,2352.31 2773.5,2321.5 Z"/></g>
<g><path style="opacity:0.069" fill="#060606" d="M 3305.5,2349.5 C 3295.6,2388.2 3282.93,2425.87 3267.5,2462.5C 3266.9,2462.26 3266.57,2461.76 3266.5,2461C 3281.22,2424.34 3294.22,2387.18 3305.5,2349.5 Z"/></g>
<g><path style="opacity:0.989" fill="#72aa90" d="M 1206.5,2565.5 C 1192.83,2565.5 1179.17,2565.5 1165.5,2565.5C 1150.99,2548.58 1133.32,2536.08 1112.5,2528C 1105.18,2526.94 1097.84,2525.94 1090.5,2525C 1080.32,2521.81 1074.99,2514.81 1074.5,2504C 1076.26,2491.55 1079.93,2479.72 1085.5,2468.5C 1087.5,2468.5 1089.5,2468.5 1091.5,2468.5C 1092.06,2464.15 1092.73,2459.81 1093.5,2455.5C 1107.51,2433.3 1123.68,2412.63 1142,2393.5C 1130.67,2415.19 1129.67,2437.52 1139,2460.5C 1141.81,2467.45 1145.14,2474.11 1149,2480.5C 1161.33,2497.5 1173.67,2514.5 1186,2531.5C 1193.48,2542.47 1200.32,2553.81 1206.5,2565.5 Z"/></g>
<g><path style="opacity:0.988" fill="#72aa90" d="M 1347.5,2454.5 C 1348.04,2458.93 1349.04,2463.27 1350.5,2467.5C 1352.05,2468.45 1353.71,2468.79 1355.5,2468.5C 1360.28,2477.67 1363.78,2487.34 1366,2497.5C 1368.9,2509.86 1364.73,2518.69 1353.5,2524C 1338.24,2524.73 1323.91,2528.73 1310.5,2536C 1297.47,2544.19 1285.8,2554.03 1275.5,2565.5C 1261.83,2565.5 1248.17,2565.5 1234.5,2565.5C 1240.74,2554.69 1247.24,2544.03 1254,2533.5C 1267,2515.5 1280,2497.5 1293,2479.5C 1302.5,2464.15 1307.67,2447.49 1308.5,2429.5C 1308.66,2416.63 1305.33,2404.8 1298.5,2394C 1300,2393.49 1301.16,2393.99 1302,2395.5C 1318.56,2414.21 1333.73,2433.88 1347.5,2454.5 Z"/></g>
<g><path style="opacity:0.863" fill="#fece37" d="M 1093.5,2455.5 C 1092.73,2459.81 1092.06,2464.15 1091.5,2468.5C 1089.5,2468.5 1087.5,2468.5 1085.5,2468.5C 1076.13,2465.32 1067.47,2460.82 1059.5,2455C 1061.75,2453.91 1063.09,2452.08 1063.5,2449.5C 1071.62,2453.06 1079.29,2457.39 1086.5,2462.5C 1086.62,2453.27 1086.62,2443.93 1086.5,2434.5C 1088.48,2435.15 1090.31,2435.15 1092,2434.5C 1092.95,2434.91 1093.61,2435.57 1094,2436.5C 1094.71,2442.87 1094.54,2449.2 1093.5,2455.5 Z"/></g>
<g><path style="opacity:0.898" fill="#fece37" d="M 1355.5,2468.5 C 1353.71,2468.79 1352.05,2468.45 1350.5,2467.5C 1349.04,2463.27 1348.04,2458.93 1347.5,2454.5C 1347.5,2447.83 1347.5,2441.17 1347.5,2434.5C 1349.58,2435.25 1351.58,2435.25 1353.5,2434.5C 1354.61,2444.23 1354.78,2453.89 1354,2463.5C 1361.09,2457.7 1368.92,2453.03 1377.5,2449.5C 1379.49,2450.29 1379.82,2451.46 1378.5,2453C 1379.91,2453.37 1380.91,2454.2 1381.5,2455.5C 1373.37,2460.9 1364.7,2465.23 1355.5,2468.5 Z"/></g>
<g><path style="opacity:0.109" fill="#7e7e7e" d="M 3267.5,2463.5 C 3277.18,2477.54 3284.18,2492.87 3288.5,2509.5C 3283.07,2493.64 3275.74,2478.64 3266.5,2464.5C 3266.62,2463.89 3266.96,2463.56 3267.5,2463.5 Z"/></g>
<g><path style="opacity:1" fill="#4b4c4b" d="M 3148.5,2690.5 C 3147.83,2670.17 3147.5,2649.67 3147.5,2629C 3147.51,2607.95 3148.18,2587.12 3149.5,2566.5C 3151.17,2566.25 3152.67,2565.58 3154,2564.5C 3156.78,2559.94 3159.28,2555.27 3161.5,2550.5C 3177.08,2546.67 3192.08,2540.51 3206.5,2532C 3230.41,2517.76 3249.24,2498.59 3263,2474.5C 3269.89,2490.19 3271.89,2506.52 3269,2523.5C 3263.8,2536.47 3257.46,2548.8 3250,2560.5C 3222.36,2597.65 3188.86,2628.31 3149.5,2652.5C 3148.5,2665.15 3148.17,2677.82 3148.5,2690.5 Z"/></g>
<g><path style="opacity:0.138" fill="#7e7e7e" d="M 2303.5,2481.5 C 2305.5,2481.5 2307.5,2481.5 2309.5,2481.5C 2314.12,2507.41 2326.45,2528.75 2346.5,2545.5C 2323.23,2530.33 2308.9,2509 2303.5,2481.5 Z"/></g>
<g><path style="opacity:1" fill="#6c6d6c" d="M 3148.5,2553.5 C 3148.18,2558.03 3148.52,2562.37 3149.5,2566.5C 3148.18,2587.12 3147.51,2607.95 3147.5,2629C 3147.5,2649.67 3147.83,2670.17 3148.5,2690.5C 3148.18,2692.05 3147.18,2692.71 3145.5,2692.5C 3123.83,2692.5 3102.17,2692.5 3080.5,2692.5C 3080.5,2680.5 3080.5,2668.5 3080.5,2656.5C 3080.83,2636.99 3080.5,2617.66 3079.5,2598.5C 3080.48,2586.58 3080.81,2574.58 3080.5,2562.5C 3081.48,2558.7 3081.82,2554.7 3081.5,2550.5C 3103.5,2550.5 3125.5,2550.5 3147.5,2550.5C 3147.26,2551.79 3147.6,2552.79 3148.5,2553.5 Z"/></g>
<g><path style="opacity:1" fill="#72a88f" d="M 3161.5,2550.5 C 3159.28,2555.27 3156.78,2559.94 3154,2564.5C 3152.67,2565.58 3151.17,2566.25 3149.5,2566.5C 3148.52,2562.37 3148.18,2558.03 3148.5,2553.5C 3152.88,2552.71 3157.21,2551.71 3161.5,2550.5 Z"/></g>
<g><path style="opacity:0.99" fill="#6e6f6e" d="M 1165.5,2565.5 C 1179.17,2565.5 1192.83,2565.5 1206.5,2565.5C 1215.83,2565.5 1225.17,2565.5 1234.5,2565.5C 1248.17,2565.5 1261.83,2565.5 1275.5,2565.5C 1304.54,2565.04 1333.54,2565.54 1362.5,2567C 1369.51,2568.59 1375.35,2572.09 1380,2577.5C 1381.34,2583.49 1381.17,2589.49 1379.5,2595.5C 1273.5,2595.5 1167.5,2595.5 1061.5,2595.5C 1060.09,2589.09 1060.26,2582.75 1062,2576.5C 1066.5,2571.66 1072,2568.5 1078.5,2567C 1107.46,2565.54 1136.46,2565.04 1165.5,2565.5 Z"/></g>
<g><path style="opacity:0.188" fill="#808080" d="M 2420.5,2577.5 C 2424.04,2577.19 2427.38,2577.52 2430.5,2578.5C 2429.02,2578.24 2427.69,2578.57 2426.5,2579.5C 2427.31,2612.99 2431.81,2645.99 2440,2678.5C 2472.28,2763.4 2505.95,2847.73 2541,2931.5C 2547.56,2948.63 2553.56,2965.96 2559,2983.5C 2562.49,2995.28 2564.82,3007.28 2566,3019.5C 2568.74,3050.63 2569.9,3081.63 2569.5,3112.5C 2553.9,3124.93 2539.73,3138.93 2527,3154.5C 2526.25,3156.33 2525.25,3158 2524,3159.5C 2523.33,3166.53 2523.49,3173.53 2524.5,3180.5C 2506.9,3194.29 2502.9,3211.29 2512.5,3231.5C 2497.72,3214.14 2497.89,3196.81 2513,3179.5C 2514.87,3177.29 2517.04,3175.46 2519.5,3174C 2517.86,3167.62 2517.36,3161.12 2518,3154.5C 2525.29,3142.2 2534.46,3131.37 2545.5,3122C 2551.62,3117.54 2557.46,3112.71 2563,3107.5C 2564.63,3073.78 2563.63,3040.11 2560,3006.5C 2555.02,2982.23 2548.02,2958.57 2539,2935.5C 2502.1,2848.14 2466.77,2760.14 2433,2671.5C 2425.55,2640.61 2421.39,2609.27 2420.5,2577.5 Z"/></g>
<g><path style="opacity:0.997" fill="#fcc1cb" d="M 2430.5,2578.5 C 2488.22,2591.02 2545.89,2603.85 2603.5,2617C 2609.68,2618.66 2615.68,2620.49 2621.5,2622.5C 2624.57,2690.69 2623.9,2758.85 2619.5,2827C 2620.4,2876.45 2627.57,2924.95 2641,2972.5C 2645.74,2985.39 2650.07,2998.39 2654,3011.5C 2653.66,3025.14 2653.5,3038.81 2653.5,3052.5C 2620.95,3066.11 2592.95,3086.11 2569.5,3112.5C 2569.9,3081.63 2568.74,3050.63 2566,3019.5C 2564.82,3007.28 2562.49,2995.28 2559,2983.5C 2553.56,2965.96 2547.56,2948.63 2541,2931.5C 2505.95,2847.73 2472.28,2763.4 2440,2678.5C 2431.81,2645.99 2427.31,2612.99 2426.5,2579.5C 2427.69,2578.57 2429.02,2578.24 2430.5,2578.5 Z"/></g>
<g><path style="opacity:0.997" fill="#a5a6a5" d="M 1061.5,2595.5 C 1167.5,2595.5 1273.5,2595.5 1379.5,2595.5C 1379.16,2601.54 1378.49,2607.54 1377.5,2613.5C 1272.83,2613.5 1168.17,2613.5 1063.5,2613.5C 1063,2607.48 1062.33,2601.48 1061.5,2595.5 Z"/></g>
<g><path style="opacity:1" fill="#4b4c4b" d="M 3079.5,2598.5 C 3080.5,2617.66 3080.83,2636.99 3080.5,2656.5C 3033.22,2655.1 2986.22,2650.6 2939.5,2643C 2911.34,2637.97 2884.01,2630.31 2857.5,2620C 2855.01,2618.58 2852.67,2617.08 2850.5,2615.5C 2897.48,2624.14 2944.81,2626.98 2992.5,2624C 3004.06,2623.29 3015.39,2621.29 3026.5,2618C 3044.31,2611.79 3061.97,2605.29 3079.5,2598.5 Z"/></g>
<g><path style="opacity:0.997" fill="#6f706f" d="M 1063.5,2613.5 C 1168.17,2613.5 1272.83,2613.5 1377.5,2613.5C 1377.55,2615.9 1377.22,2618.24 1376.5,2620.5C 1272.5,2620.5 1168.5,2620.5 1064.5,2620.5C 1064.55,2618.1 1064.22,2615.76 1063.5,2613.5 Z"/></g>
<g><path style="opacity:0.997" fill="#a7a9a7" d="M 1064.5,2620.5 C 1168.5,2620.5 1272.5,2620.5 1376.5,2620.5C 1376.24,2626.23 1375.58,2631.9 1374.5,2637.5C 1271.83,2637.5 1169.17,2637.5 1066.5,2637.5C 1065.92,2631.82 1065.25,2626.16 1064.5,2620.5 Z"/></g>
<g><path style="opacity:0.13" fill="#848282" d="M 2687.5,2636.5 C 2685.77,2636.84 2685.27,2637.84 2686,2639.5C 2710.84,2690.52 2735.68,2741.52 2760.5,2792.5C 2758.78,2790.75 2757.28,2788.75 2756,2786.5C 2731.21,2736.6 2706.71,2686.6 2682.5,2636.5C 2684.33,2635.51 2686,2635.51 2687.5,2636.5 Z"/></g>
<g><path style="opacity:1" fill="#fcc1cb" d="M 2687.5,2636.5 C 2723.18,2644.45 2758.85,2652.62 2794.5,2661C 2803.72,2667.06 2813.05,2672.89 2822.5,2678.5C 2822.67,2759.83 2822.5,2841.17 2822,2922.5C 2813.69,2892.89 2801.85,2864.89 2786.5,2838.5C 2777.84,2823.17 2769.17,2807.84 2760.5,2792.5C 2735.68,2741.52 2710.84,2690.52 2686,2639.5C 2685.27,2637.84 2685.77,2636.84 2687.5,2636.5 Z"/></g>
<g><path style="opacity:0.997" fill="#6f706f" d="M 1066.5,2637.5 C 1169.17,2637.5 1271.83,2637.5 1374.5,2637.5C 1374.7,2639.95 1374.37,2642.28 1373.5,2644.5C 1271.5,2644.5 1169.5,2644.5 1067.5,2644.5C 1067.33,2642.14 1066.99,2639.81 1066.5,2637.5 Z"/></g>
<g><path style="opacity:0.998" fill="#a6a7a6" d="M 1067.5,2644.5 C 1169.5,2644.5 1271.5,2644.5 1373.5,2644.5C 1373.16,2650.54 1372.49,2656.54 1371.5,2662.5C 1270.83,2662.5 1170.17,2662.5 1069.5,2662.5C 1069,2656.48 1068.33,2650.48 1067.5,2644.5 Z"/></g>
<g><path style="opacity:0.997" fill="#6e6f6e" d="M 1069.5,2662.5 C 1170.17,2662.5 1270.83,2662.5 1371.5,2662.5C 1364.49,2722.58 1357.16,2782.58 1349.5,2842.5C 1351.06,2856.18 1346.39,2867.01 1335.5,2875C 1321.9,2882.76 1307.23,2887.09 1291.5,2888C 1244.5,2888.67 1197.5,2888.67 1150.5,2888C 1133.37,2887.4 1117.7,2882.4 1103.5,2873C 1094.76,2864.8 1090.76,2854.64 1091.5,2842.5C 1084.39,2782.47 1077.05,2722.47 1069.5,2662.5 Z"/></g>
<g><path style="opacity:0.998" fill="#6c6d6c" d="M 2823.5,2678.5 C 2846.91,2688.65 2871.25,2695.65 2896.5,2699.5C 2896.5,2741.83 2896.5,2784.17 2896.5,2826.5C 2895.17,2891.5 2895.17,2956.5 2896.5,3021.5C 2896.5,3021.83 2896.5,3022.17 2896.5,3022.5C 2895.17,3054 2895.17,3085.67 2896.5,3117.5C 2903.19,3114.82 2909.86,3112.15 2916.5,3109.5C 2972.92,3112.79 3028.92,3120.29 3084.5,3132C 3120.5,3139.55 3154.5,3152.22 3186.5,3170C 3199.93,3178.25 3209.93,3189.42 3216.5,3203.5C 3218.9,3215.34 3216.4,3226.01 3209,3235.5C 3196.63,3248.92 3182.13,3259.26 3165.5,3266.5C 3122.12,3284.43 3077.12,3296.6 3030.5,3303C 2903.37,3321.5 2776.7,3318.83 2650.5,3295C 2621.43,3288.82 2593.1,3280.32 2565.5,3269.5C 2550.94,3262.88 2537.27,3254.72 2524.5,3245C 2519.92,3240.93 2515.92,3236.43 2512.5,3231.5C 2502.9,3211.29 2506.9,3194.29 2524.5,3180.5C 2526.14,3186.57 2528.3,3192.57 2531,3198.5C 2533.21,3202.88 2536.71,3205.55 2541.5,3206.5C 2543.29,3207.62 2545.29,3207.79 2547.5,3207C 2571.04,3201.69 2594.71,3197.03 2618.5,3193C 2643.08,3183.97 2665.58,3171.47 2686,3155.5C 2688.9,3152.36 2690.74,3148.69 2691.5,3144.5C 2691.3,3139.74 2690.8,3135.07 2690,3130.5C 2690.88,3133.1 2692.38,3135.27 2694.5,3137C 2714.44,3150.05 2736.27,3157.88 2760,3160.5C 2780.95,3156.8 2801.45,3151.3 2821.5,3144C 2822.83,3121.07 2822.83,3098.24 2821.5,3075.5C 2821.5,3074.83 2821.83,3074.5 2822.5,3074.5C 2823.09,2942.67 2823.43,2810.67 2823.5,2678.5 Z"/></g>
<g><path style="opacity:0.991" fill="#fac0ca" d="M 2896.5,2826.5 C 2904.12,2853.96 2910.95,2881.63 2917,2909.5C 2927.56,2930.18 2939.06,2950.18 2951.5,2969.5C 2953.71,2974.39 2956.38,2979.06 2959.5,2983.5C 2950.89,2986.32 2942.55,2989.82 2934.5,2994C 2921.95,3003.39 2909.29,3012.55 2896.5,3021.5C 2895.17,2956.5 2895.17,2891.5 2896.5,2826.5 Z"/></g>
<g><path style="opacity:0.101" fill="#74ab91" d="M 1091.5,2842.5 C 1090.76,2854.64 1094.76,2864.8 1103.5,2873C 1117.7,2882.4 1133.37,2887.4 1150.5,2888C 1197.5,2888.67 1244.5,2888.67 1291.5,2888C 1307.23,2887.09 1321.9,2882.76 1335.5,2875C 1346.39,2867.01 1351.06,2856.18 1349.5,2842.5C 1398.84,2844.62 1447.5,2851.45 1495.5,2863C 1506.93,2866.05 1517.6,2870.72 1527.5,2877C 1533.88,2883.06 1533.88,2889.06 1527.5,2895C 1515.43,2902.47 1502.43,2907.8 1488.5,2911C 1437.41,2922.01 1385.74,2928.68 1333.5,2931C 1231.3,2937.03 1129.3,2934.7 1027.5,2924C 994.437,2920.79 962.104,2914.12 930.5,2904C 922.133,2901.24 915.3,2896.41 910,2889.5C 909.21,2886.37 909.543,2883.37 911,2880.5C 913.921,2876.91 917.421,2874.08 921.5,2872C 946.283,2862.05 971.949,2855.39 998.5,2852C 1029.35,2847.26 1060.35,2844.09 1091.5,2842.5 Z"/></g>
<g><path style="opacity:0.2" fill="#7f7f82" d="M 2822.5,2678.5 C 2822.83,2678.5 2823.17,2678.5 2823.5,2678.5C 2823.43,2810.67 2823.09,2942.67 2822.5,3074.5C 2822.67,3044.5 2822.5,3014.5 2822,2984.5C 2818.08,2998.59 2812.41,3011.93 2805,3024.5C 2789.81,3044.91 2775.64,3065.91 2762.5,3087.5C 2749.92,3087.32 2737.25,3088.48 2724.5,3091C 2705.24,3094.92 2693.07,3106.42 2688,3125.5C 2686.92,3121.44 2685.76,3117.44 2684.5,3113.5C 2689.28,3103.43 2696.28,3095.27 2705.5,3089C 2722.84,3084.17 2740.51,3081.17 2758.5,3080C 2771.22,3059.95 2784.72,3040.45 2799,3021.5C 2807.65,3008.22 2813.98,2993.89 2818,2978.5C 2818.67,2958.17 2818.67,2937.83 2818,2917.5C 2815.27,2906.97 2811.93,2896.64 2808,2886.5C 2801.1,2870.36 2793.93,2854.36 2786.5,2838.5C 2801.85,2864.89 2813.69,2892.89 2822,2922.5C 2822.5,2841.17 2822.67,2759.83 2822.5,2678.5 Z"/></g>
<g><path style="opacity:0.997" fill="#517866" d="M 2951.5,2969.5 C 2953.64,2971.81 2955.64,2974.31 2957.5,2977C 2959.94,2976.95 2962.27,2977.11 2964.5,2977.5C 2976.78,3005.05 2988.78,3032.72 3000.5,3060.5C 2999.26,3064.4 2996.92,3067.4 2993.5,3069.5C 2960.68,3076.37 2928.68,3086.04 2897.5,3098.5C 2896.5,3073.18 2896.17,3047.84 2896.5,3022.5C 2896.5,3022.17 2896.5,3021.83 2896.5,3021.5C 2909.29,3012.55 2921.95,3003.39 2934.5,2994C 2942.55,2989.82 2950.89,2986.32 2959.5,2983.5C 2956.38,2979.06 2953.71,2974.39 2951.5,2969.5 Z"/></g>
<g><path style="opacity:1" fill="#fbc1cb" d="M 2822.5,3074.5 C 2821.83,3074.5 2821.5,3074.83 2821.5,3075.5C 2812.53,3081.66 2803.53,3087.82 2794.5,3094C 2786.08,3098.25 2777.41,3101.92 2768.5,3105C 2758.79,3107.4 2755.62,3103.9 2759,3094.5C 2760.7,3092.42 2761.87,3090.09 2762.5,3087.5C 2775.64,3065.91 2789.81,3044.91 2805,3024.5C 2812.41,3011.93 2818.08,2998.59 2822,2984.5C 2822.5,3014.5 2822.67,3044.5 2822.5,3074.5 Z"/></g>
<g><path style="opacity:0.991" fill="#4a6c5c" d="M 2896.5,3022.5 C 2896.17,3047.84 2896.5,3073.18 2897.5,3098.5C 2928.68,3086.04 2960.68,3076.37 2993.5,3069.5C 2986.23,3075.92 2978.23,3081.42 2969.5,3086C 2955.77,3092.62 2942.11,3099.12 2928.5,3105.5C 2924.44,3106.63 2920.44,3107.97 2916.5,3109.5C 2909.86,3112.15 2903.19,3114.82 2896.5,3117.5C 2895.17,3085.67 2895.17,3054 2896.5,3022.5 Z"/></g>
<g><path style="opacity:1" fill="#517866" d="M 2653.5,3052.5 C 2665.16,3072.15 2675.49,3092.48 2684.5,3113.5C 2685.76,3117.44 2686.92,3121.44 2688,3125.5C 2693.07,3106.42 2705.24,3094.92 2724.5,3091C 2737.25,3088.48 2749.92,3087.32 2762.5,3087.5C 2761.87,3090.09 2760.7,3092.42 2759,3094.5C 2755.62,3103.9 2758.79,3107.4 2768.5,3105C 2777.41,3101.92 2786.08,3098.25 2794.5,3094C 2803.53,3087.82 2812.53,3081.66 2821.5,3075.5C 2822.83,3098.24 2822.83,3121.07 2821.5,3144C 2801.45,3151.3 2780.95,3156.8 2760,3160.5C 2736.27,3157.88 2714.44,3150.05 2694.5,3137C 2692.38,3135.27 2690.88,3133.1 2690,3130.5C 2690.8,3135.07 2691.3,3139.74 2691.5,3144.5C 2668.38,3145.08 2645.72,3148.58 2623.5,3155C 2596.82,3171 2570.82,3188 2545.5,3206C 2544.21,3206.49 2542.87,3206.66 2541.5,3206.5C 2536.71,3205.55 2533.21,3202.88 2531,3198.5C 2528.3,3192.57 2526.14,3186.57 2524.5,3180.5C 2523.49,3173.53 2523.33,3166.53 2524,3159.5C 2525.25,3158 2526.25,3156.33 2527,3154.5C 2539.73,3138.93 2553.9,3124.93 2569.5,3112.5C 2592.95,3086.11 2620.95,3066.11 2653.5,3052.5 Z"/></g>
<g><path style="opacity:0.209" fill="#7f7f7f" d="M 2928.5,3105.5 C 2998.32,3108.36 3066.65,3119.86 3133.5,3140C 3154.85,3147.01 3174.85,3156.67 3193.5,3169C 3202.14,3175.3 3208.97,3183.14 3214,3192.5C 3215.31,3196.07 3216.14,3199.74 3216.5,3203.5C 3209.93,3189.42 3199.93,3178.25 3186.5,3170C 3154.5,3152.22 3120.5,3139.55 3084.5,3132C 3028.92,3120.29 2972.92,3112.79 2916.5,3109.5C 2920.44,3107.97 2924.44,3106.63 2928.5,3105.5 Z"/></g>
<g><path style="opacity:1" fill="#496c5c" d="M 2691.5,3144.5 C 2690.74,3148.69 2688.9,3152.36 2686,3155.5C 2665.58,3171.47 2643.08,3183.97 2618.5,3193C 2594.71,3197.03 2571.04,3201.69 2547.5,3207C 2545.29,3207.79 2543.29,3207.62 2541.5,3206.5C 2542.87,3206.66 2544.21,3206.49 2545.5,3206C 2570.82,3188 2596.82,3171 2623.5,3155C 2645.72,3148.58 2668.38,3145.08 2691.5,3144.5 Z"/></g>
<g><path style="opacity:1" fill="#626362" d="M 2895.5,3161.5 C 2906.8,3162.66 2917.47,3165.82 2927.5,3171C 2929.33,3172.83 2931.17,3174.67 2933,3176.5C 2933.71,3178.97 2933.37,3181.3 2932,3183.5C 2924.5,3190.3 2915.66,3194.47 2905.5,3196C 2891.14,3198.88 2876.64,3200.05 2862,3199.5C 2841.59,3200.55 2821.76,3197.72 2802.5,3191C 2787.42,3182.07 2788.09,3174.07 2804.5,3167C 2810.28,3164.57 2816.28,3163.07 2822.5,3162.5C 2822.5,3168.17 2822.5,3173.83 2822.5,3179.5C 2846.83,3179.5 2871.17,3179.5 2895.5,3179.5C 2895.5,3173.5 2895.5,3167.5 2895.5,3161.5 Z"/></g>
<g><path style="opacity:0.099" fill="#74ab91" d="M 3165.5,3266.5 C 3177.59,3268.13 3189.59,3270.29 3201.5,3273C 3234.83,3282 3234.83,3291 3201.5,3300C 3171.44,3306.22 3141.11,3310.55 3110.5,3313C 3059.74,3317.09 3009.08,3319.92 2958.5,3321.5C 2902.5,3321.5 2846.5,3321.5 2790.5,3321.5C 2722.09,3319.87 2653.76,3315.04 2585.5,3307C 2572.75,3305.1 2560.09,3302.76 2547.5,3300C 2540.09,3298.31 2533.09,3295.64 2526.5,3292C 2523.09,3289.73 2522.26,3286.9 2524,3283.5C 2526.99,3280.51 2530.49,3278.34 2534.5,3277C 2544.61,3273.54 2554.94,3271.04 2565.5,3269.5C 2593.1,3280.32 2621.43,3288.82 2650.5,3295C 2776.7,3318.83 2903.37,3321.5 3030.5,3303C 3077.12,3296.6 3122.12,3284.43 3165.5,3266.5 Z"/></g>
</svg>
